<svg xmlns="http://www.w3.org/2000/svg" viewBox="2 0 280 234.27"><defs><style>.a{fill:#416230;}.b{fill:#40602f;}.c{fill:#eede29;}.d{fill:#e84c1d;}.e{fill:#e6431c;}.f{fill:#fff;}</style></defs><path class="b" d="M183.49,420.94c-4.19,0-7.64-7.45-9.21-14.82-1.22-5.74-1.26-13.38,1.06-16.24a2.92,2.92,0,0,1,2.32-1.2c3.62,0,7.78,6.59,9.38,14.66,5.06-6.55,11.8-10.62,15-9a2.92,2.92,0,0,1,1.54,2.12c.78,3.59-2.69,10.4-6.36,15-4.83,6-10.07,9.68-13.45,9.45A1.73,1.73,0,0,1,183.49,420.94Zm-5.75-29.26c-.94.74-2.08,6.5-.52,13.82,1.73,8.16,4.88,12.32,6.21,12.43l.31,0,.21,0c1.5.19,5.81-1.9,11-8.33,4.67-5.83,6.25-11.49,5.75-12.57-1.33-.47-7.1,2.4-11.88,9-.51.71-1,1.4-1.42,2.07l-2.26,3.43-.49-4.07c-.09-.77-.19-1.55-.32-2.37C183,397,179.13,391.87,177.74,391.68Z" transform="translate(-162.58 -325.07)"/><path class="b" d="M187.61,403.58a3.64,3.64,0,0,1-.57,0,3.35,3.35,0,0,1-2.36-1.66c-2.12-3.49-.13-11,1.24-15.1,2.75-8.28,8.26-14.76,12-14.16a2.88,2.88,0,0,1,2.1,1.55c1.84,3.19.58,10.73-1.53,16.2C195.9,397.08,191.59,403.58,187.61,403.58Zm9.74-28c-1.43,0-6,4.46-8.58,12.15-2.24,6.75-2.38,11.19-1.53,12.6.14.23.24.25.28.26,1.28.2,5.12-3.39,8.17-11.29,2.69-7,2.49-12.84,1.68-13.72Zm.09,0Z" transform="translate(-162.58 -325.07)"/><path class="b" d="M203.06,373.64a2.34,2.34,0,0,1-2.49-2.21c-.35-2.58,1.93-7.07,6.11-12h0c2.45-2.9,10.81-12.12,15.64-9a2.19,2.19,0,0,1,1,1.51c.27,1.69-1,4.41-8.07,13.36C211.38,370.13,206.08,373.64,203.06,373.64ZM209,361.35h0c-4.23,5-5.28,8.12-5.42,9.27,1.53-.37,5.57-2.46,9.33-7.2,5.47-6.88,7-9.57,7.36-10.63C218.52,352.63,214.13,355.24,209,361.35Z" transform="translate(-162.58 -325.07)"/><path class="b" d="M194.22,375.55a3.75,3.75,0,0,1-3.19-1.7c-1.61-2.44-1.88-7.27,1-13.23,3.42-7,9.86-13.47,13.75-12.84a2.91,2.91,0,0,1,2.14,1.47c1.16,2,.49,5.69-2.37,13.11a11.54,11.54,0,0,0-1.09,2.92c-.92,11.87-3.67,10-10.05,10.27Zm11-24.83c-1.38,0-5.8,3.9-9.53,11.59-3.5,7.21-2.42,9.5-2.16,9.88a.73.73,0,0,0,.74.36h0c4.2-.19,5.06-2,7.37-8.3.34-.92.7-1.91,1.11-3,3.41-8.82,2.73-10.34,2.56-10.55Z" transform="translate(-162.58 -325.07)"/><path class="b" d="M209.3,357.87c-.19,0-2.88,2.74-3.06,2.7l2.5-2.75c-1.77,5-4.1,2.75-2.56-2.72.86-3.08.55-5,2.65-9.61a25.81,25.81,0,0,1,2.29-3.86c2.84-3.07,5.52-6,8.38-5.5a2.9,2.9,0,0,1,2.27,1.35c.55,1.08,0,2.11-.53,3.21a7.6,7.6,0,0,0-1,2.37C218.68,353,212.82,357.87,209.3,357.87Zm9.38-18.78c-1.33.23-3.54,2.62-5.35,4.58-.62.66-1.24,1.34-1.87,2a10.33,10.33,0,0,0-2.58,7.75,2.74,2.74,0,0,0,.49,1.48c1.26-.1,5.49-4.53,8-12.7a18.23,18.23,0,0,1,1.2-2.85Z" transform="translate(-162.58 -325.07)"/><path class="b" d="M220.38,351.32a3.65,3.65,0,0,1-1.31-.23h0a3.59,3.59,0,0,1-2.26-2.37c-1-3.28,2.3-8.58,4.36-11.45,3.59-5,10.36-10,13.31-8.69,1,.47,1,.49,1.34,1.18,1,2.19-4.5,7.31-6.21,10.17-1.75,5.48-4.44,9.55-7.21,10.9A4.61,4.61,0,0,1,220.38,351.32Zm9.73-19.59c-1.86.81-5.16,5.41-6.49,7.27-2.75,3.83-4.36,7.46-3.94,8.85,0,.19.14.32.44.43h0a1.29,1.29,0,0,0,1-.15c1.53-.75,3.94-3.62,5.72-9.27l.14-.32A28.94,28.94,0,0,0,230.11,331.73Z" transform="translate(-162.58 -325.07)"/><path class="b" d="M229.8,347.09h-.31a3.43,3.43,0,0,1-2.38-1.36h0c-3.76-4.6,3.2-10.39,5.83-12.57,2.37-2,7.06-3.83,10.4-4.91,6.12-2,6,.29,6.07.84.54,3.33-3.26,5.94-9.53,11.2l-1.83,1.55C234,345.28,231.83,347.09,229.8,347.09ZM244.07,331c-1.64,0-6.27,2.06-9.22,4.51-6,5-6.27,7.31-5.42,8.36h0c.07.08.23.26.34.27.85.07,3.4-2.07,6.34-4.55L238,338c3.16-2.65,6-5.77,6.39-7A1,1,0,0,0,244.07,331Z" transform="translate(-162.58 -325.07)"/><path class="b" d="M220.73,366.79a5.43,5.43,0,0,1-1.35-.16c-1.36-.33-6.29.32-6.29.32-.54-.89,2.38-4.88,2.81-6,1.17-3,5.83-5.94,12.78-8l1.15-.34c3.67-1.1,5.19-1.55,6.33-.69a2,2,0,0,1,.79,1.71c-.06,3.35-4.14,7.63-7.95,9.95C225.46,365.77,222.83,366.79,220.73,366.79Zm8.8-10.93c-7,2.07-10.23,4.63-10.83,6.2a.65.65,0,0,0-.06.45,2.29,2.29,0,0,0,1.45,1.21c1.41.34,3.88-.56,7.35-2.67,2.76-1.68,5.41-4.46,6.24-6.39-.8.2-1.91.53-3,.85Z" transform="translate(-162.58 -325.07)"/><path class="b" d="M225.77,355.57a4.19,4.19,0,0,1-1-.11,2.83,2.83,0,0,1-1.78-1.34l-.14-.24a4.36,4.36,0,0,1-.76-3.82c.76-2.14,3.81-4.06,10.53-6.62l.4-.15c4.19-.71,10.36-4,11.59-1.88.86,1.45-1.18,3.73-1.78,4.28-3.53,3.21-3.91,3-5.14,4.09a10.94,10.94,0,0,1-2.45,1.61l-.37.22C231.47,353.7,228.18,355.57,225.77,355.57Zm-.13-2.95Zm0-.06c.62.19,2.47-.3,7.76-3.52l.37-.22c1.36-.82,2.75-1.52,4-2.14,1.71-.86,4-2,4.33-2.78-1-.16-3.68.58-7.91,2.19l-.4.16c-7.37,2.8-8.58,4.29-8.77,4.81-.08.24.1.6.52,1.3Z" transform="translate(-162.58 -325.07)"/><path class="b" d="M203.58,382.87a4.42,4.42,0,0,1-3.5-1.8,4,4,0,0,1-.9-3.42c.53-2.67,3.68-5.51,9.63-8.68h0c6.47-3.44,12.88-5.05,15.95-4a3.27,3.27,0,0,1,2,1.74c1.42,3.15-3,5.38-7,7.35-.89.44-1.74.87-2.4,1.25-2.23,1.27-3,1.83-5.88,3.75S205.94,382.87,203.58,382.87Zm6.64-11.25h0c-6.85,3.64-7.94,5.83-8.09,6.61a1,1,0,0,0,.26.92c1.17,1.41,2.56.76,7.48-2.58,1.76-1.19,3.75-2.54,6.08-3.87.74-.42,1.62-.86,2.55-1.33,1.66-.83,5.07-2.54,5.52-3.48C223.18,367.21,217.75,367.61,210.22,371.62Z" transform="translate(-162.58 -325.07)"/><path class="c" d="M203.07,383.8c-5,5.08-7,8.91-5.78,9.87s5.44-1.08,10.19-5.53c4.33-4.06,8-7.51,6.69-8.48S207.66,379.15,203.07,383.8Z" transform="translate(-162.58 -325.07)"/><path class="b" d="M198.1,395.39a2.79,2.79,0,0,1-1.72-.53,2.5,2.5,0,0,1-.94-1.84c-.21-2.95,2.1-9.38,4.64-11.95l1.15-1a11.38,11.38,0,0,1,13.85-1.64,2.11,2.11,0,0,1,.84,1.6c.1,1.92-2.07,4.15-7.42,9.16C207.26,390.39,203.73,398.35,198.1,395.39Zm0-3Z" transform="translate(-162.58 -325.07)"/><path class="b" d="M183.89,395.39c-.13,0-2-3.72-2.09-3.73h0a3.53,3.53,0,0,1-2.35-1.72c-1.32-2-2.2-6.11-.69-11.6,1.55-5.69,7.61-12.34,10.59-13.5a2.31,2.31,0,0,1,2.14.07c1.45.91,3.74,2.12-.65,16C188.9,387.12,186.55,395.39,183.89,395.39Zm-1.72-6.71ZM189.75,368c-2.13,1.45-6.83,6.49-8.1,11.13-1.58,5.8-.06,9,.6,9.53.69-.21,2.76-2.25,4.49-7.75C189.32,372.71,189.75,369.34,189.75,368Z" transform="translate(-162.58 -325.07)"/><path class="c" d="M201.41,395.7c-2.31-1.17-8.86,2.57-13.83,9.41-.53.73-1,1.44-1.47,2.13q-.13-1.17-.33-2.43c-1.36-8.35-5.53-14.63-8.12-14.63s-3.51,8.08-1.91,15.63c1.75,8.27,5.15,13.63,7.74,13.63a2.51,2.51,0,0,0,.27,0c2.59.33,7.52-2.89,12.33-8.88S203.72,396.86,201.41,395.7Z" transform="translate(-162.58 -325.07)"/><path class="c" d="M199.71,372.58c-2.55-.41-7,1.63-12.36,14.67-3.52,8.57-2.62,14.4-.07,14.81s6.76-4.34,9.81-12.23C199.87,382.64,202.27,373,199.71,372.58Z" transform="translate(-162.58 -325.07)"/><path class="c" d="M207.82,360.38c-6.23,6.55-7.25,11.05-5.35,11.64,2.28.71,6.9-1.77,11.59-7.66,6.34-8,7.56-12.23,6.32-13C217.6,349.53,212.61,355.35,207.82,360.38Z" transform="translate(-162.58 -325.07)"/><path class="c" d="M194.35,373.05c3.33,1.05,8.6-8.49,9.81-11.23,1.81-4.1,4-12.14,1.39-12.56s-8.31,4.45-11.2,12.4C192.42,367,191.88,372.27,194.35,373.05Z" transform="translate(-162.58 -325.07)"/><path class="c" d="M207.87,356.38c3.5,1.68,8.27-5.09,10.92-13.76,0,0,2.38-5.35.47-5-2.55.45-4.83,2.42-7.87,7S205.54,355.25,207.87,356.38Z" transform="translate(-162.58 -325.07)"/><path class="c" d="M219.61,350.08c3.69,1.85,8.48-8.74,11.91-15.17,0,0,2.77-4,1.34-4.62-2.56-1.18-7.43,3.65-10,7.73C221,340.91,215.83,348.19,219.61,350.08Z" transform="translate(-162.58 -325.07)"/><path class="c" d="M228.6,345.12c1.45.19,3.26,1.87,11.65-6.95,0,0,9.63-7.56,8.07-9.57S241,330.55,237,332.78C232.31,335.33,226.28,343.14,228.6,345.12Z" transform="translate(-162.58 -325.07)"/><path class="c" d="M229.1,354.42c-9.83,2.9-14.13,8.66-12.48,10.23s5.31,1.51,11.6-2.32c3.53-2.15,7.19-6.1,7.23-8.69C235.47,352.41,233.52,353.11,229.1,354.42Z" transform="translate(-162.58 -325.07)"/><path class="c" d="M230.35,346.12c-8.17,2.85-9.32,5.77-8,8.38,1.49,3,9.83-2.9,12.9-4.85,5.65-3.58,7.49-4.72,7.65-7C243.05,340.11,234.64,344.63,230.35,346.12Z" transform="translate(-162.58 -325.07)"/><path class="c" d="M209.52,370.29c-5.12,2.84-9.36,7.46-8.29,9.82,1.3,2.85,8.17-1.68,15.46-6.11,3.16-1.91,9.81-4.32,8.74-6.68S217.05,366.12,209.52,370.29Z" transform="translate(-162.58 -325.07)"/><path class="c" d="M202.05,384c-5.55,5.26-5,10.06-3.5,10.62,2.86,1.07,5.26-1.12,8.93-6.49,2-2.88,6.87-7.89,5.61-8.85S204.81,381.39,202.05,384Z" transform="translate(-162.58 -325.07)"/><path class="c" d="M183,392.17c1.57.22,3.2-4.61,5.16-10.81,1.78-5.66,2.7-13.68,1.06-14.71-1.34-.84-6.86,6.18-8.58,12.48C178.76,386,181.44,392,183,392.17Z" transform="translate(-162.58 -325.07)"/><path class="b" d="M270,515.37a2,2,0,0,0-.25-.14l-11.14-4.71L246.42,495.2s-6.78-9.11-17.1-11.27c-.62-.13.5-.28,0,0a56.49,56.49,0,0,1-3.54-4.89c-.52-.56-3.8-4-3.78-3.2a37.22,37.22,0,0,1-.16,7.61l-.63,4.4c-4.19-9.76-9.19-19.09-6.78-28.19.25-1,1.44-5.55.77-4.81a29.79,29.79,0,0,0-4.4,6.81,73.92,73.92,0,0,0-5.12,8.93h0l-.26-31.27c0-.82,0-5.77.79-15.32.07-.82-4.57,3.38-8.16,10.06-3.07,5.74-2.26,5.66-3.82,11.09.22-13,1.17-21.91,1.19-22,1.51-6.62,3.64-6.69,4.24-8.16.3-.72-4.24,1.43-6.78,3.48a33,33,0,0,0-7.95,9c-3.56-5.69-8.48-8-14-11.79-.68-.46-8.1-4.53-7.53-3.93a26.87,26.87,0,0,1,5.18,7.08c2.87,4.38,5.64,13.12,8.85,21.32a28.46,28.46,0,0,0-5.8-3.42c-.81-.41-5.46-2.51-5.05-1.7a63.41,63.41,0,0,0,4.12,6.6c8.56,14.52,9.5,17,18.72,30-10.93-12.14-18.82-14.44-26.83-17.46,0,0,27.88,23.37,42.84,47.22-8.4-4.06-16-8.18-18.66-10.13a127.36,127.36,0,0,0,28.91,28.4,12.26,12.26,0,0,1-3.68-.71c-2.34-.6-2.21-.15-6.55-2.42-1.16-.61,7.93,10.87,8.45,11.59s10,8.28,14.69,8.28l10.85-.08a24.43,24.43,0,0,0,2.42-.91l2.7-1.09a2,2,0,0,0,1.18-1.37,35.45,35.45,0,0,0,7.51,1.28c3.87,0,.85-2.67-2.05-4.74l4.68.44h.19a2,2,0,0,0,1.26-.44c1-.84,5.51-4.67,6.34-8.55,3.8,1.21,6.15,1.73,7.65,1.73a2.49,2.49,0,0,0,2.61-1.41C274.76,519.51,273.58,517.76,270,515.37Zm-7.72.84L262,516l1,.49Zm-26.87-24.53c-.76-1.22-1.55-2.6-2.21-3.83a49.15,49.15,0,0,1,8.68,6.56c.05.06,7.64,9.54,7.7,9.6l7,8.45L262,516c-4.27-1.53-7.77-1.13-12.21-5.47-3.62-3.78-7.32-7.44-8.79-9.9-.48-1-4.43-6.88-5.59-8.9A.08.08,0,0,0,235.38,491.68Zm-3.49,21.65c-3.9-2.4-8.67-5.24-14.5-8.61-7.4-13.06-10.47-31.46-6.59-38.71C215.55,486,223.24,502,231.89,513.33Zm-29.2-82.92.11,37L196,457.72C195.71,454.89,195.87,441.15,202.69,430.41Zm-10.36-8.69c-1.05,5.46-.71,12.23,0,23.32,0,.07.57,7.42.57,7.42v2.75l-4.14-4.71c.14-10.16-.6-11.41-2.5-17.12l.49-3A52.11,52.11,0,0,1,192.33,421.72Zm-10.47,8.44c3.82,8.42,4.61,15.08,4.37,17.62l-3.5-4.95c-.76-2.05-7.59-16.89-12-25.45C174.63,420.77,181,428.24,181.86,430.16Zm-1.8,16,3.54,3.43,7.31,8.18,9.84,13.3,4.93,9c1.24,5.83,1,6.46,1.88,10.33-8.67-11.87-24.68-34.93-34.1-49C177,444.07,179.45,445.66,180.06,446.18Zm38.32,63.43c8.86,3.31,21.41,15,24.7,18.46-1-.27-2.08-.58-3.26-.93a72.54,72.54,0,0,1-16.56-7.41,1.92,1.92,0,0,0-.81-.48,182,182,0,0,1-23.1-17.9C205.61,504.35,213.22,507.68,218.38,509.61ZM237,532.35c-6.42,1.69-12.5,1.23-23.55-9.11,2.57.27,5.3.34,5.43.32h0l3.24.9c3,2,10.57,4.91,16.68,7.81Zm18.43-6.53-6.74-.64a20.69,20.69,0,0,0-2.46-2.23c-6.1-6.08-20.37-21.32-22.32-32.69l.51-8.08c2,2.39,5.09,7.58,7.24,11,.07.13.14.24.22.37a.75.75,0,0,0,.07.12c.2.41.78,1.6,1.77,3.26a38.91,38.91,0,0,0,7.5,10,48.07,48.07,0,0,0,18.6,12.63C260,520.89,257.76,523.75,255.41,525.82Z" transform="translate(-162.58 -325.07)"/><path class="b" d="M182.17,419.44v6.74l2.86,2.4,1.73-1.72-.49-7S185.32,420.84,182.17,419.44Z" transform="translate(-162.58 -325.07)"/><path class="b" d="M421.63,420.91c-3.39.23-8.63-3.44-13.45-9.45-3.67-4.58-7.15-11.39-6.37-15a2.94,2.94,0,0,1,1.54-2.12c3.24-1.64,10,2.43,15,9,1.6-8.07,5.75-14.66,9.37-14.66a3,3,0,0,1,2.33,1.2c2.31,2.86,2.27,10.5,1,16.24-1.56,7.37-5,14.82-9.21,14.82Zm-.49-15.86c-.14.82-.24,1.6-.33,2.37l-.48,4.07-2.26-3.43c-.45-.67-.91-1.36-1.43-2.07-4.78-6.58-10.55-9.45-11.87-9-.51,1.08,1.07,6.74,5.75,12.57,5.16,6.43,9.46,8.52,11,8.33l.2,0,.31,0c1.34-.11,4.49-4.27,6.22-12.43,1.55-7.32.42-13.08-.52-13.82C426.3,391.87,422.44,397,421.14,405.05Z" transform="translate(-162.58 -325.07)"/><path class="b" d="M406.94,390.37c-2.11-5.47-3.36-13-1.53-16.2a2.88,2.88,0,0,1,2.1-1.55c3.75-.6,9.25,5.88,12,14.16,1.37,4.14,3.36,11.61,1.25,15.1a3.38,3.38,0,0,1-2.37,1.66,3.64,3.64,0,0,1-.57,0C413.84,403.58,409.54,397.08,406.94,390.37Zm1.12-14.8c-.81.88-1,6.75,1.68,13.72,3.05,7.9,6.9,11.49,8.17,11.29,0,0,.14,0,.28-.26.86-1.41.71-5.85-1.53-12.6-2.55-7.69-7.15-12.15-8.58-12.15Zm-.07,0Z" transform="translate(-162.58 -325.07)"/><path class="b" d="M390.2,365.29c-7.11-9-8.34-11.67-8.06-13.36a2.18,2.18,0,0,1,1-1.51c4.83-3.13,13.2,6.09,15.65,9h0c4.17,4.95,6.46,9.44,6.1,12a2.34,2.34,0,0,1-2.49,2.21C399.35,373.64,394.05,370.13,390.2,365.29Zm-5-12.5c.35,1.06,1.89,3.75,7.36,10.63,3.76,4.74,7.81,6.83,9.34,7.2-.15-1.15-1.19-4.26-5.43-9.27h0C391.31,355.24,386.91,352.63,385.19,352.79Z" transform="translate(-162.58 -325.07)"/><path class="b" d="M411,375.55c-6.37-.3-9.12,1.6-10-10.27a11.59,11.59,0,0,0-1.1-2.92c-2.86-7.42-3.53-11.09-2.37-13.11a2.94,2.94,0,0,1,2.14-1.47c3.9-.63,10.34,5.8,13.75,12.84,2.9,6,2.62,10.79,1,13.23a3.73,3.73,0,0,1-3.19,1.7Zm-10.9-24.82c-.17.21-.85,1.73,2.56,10.55.41,1.06.77,2.05,1.11,3,2.32,6.28,3.17,8.11,7.37,8.3h0a.75.75,0,0,0,.75-.36c.25-.38,1.34-2.67-2.16-9.88-3.74-7.69-8.16-11.59-9.54-11.59Z" transform="translate(-162.58 -325.07)"/><path class="b" d="M385.21,343.06a7.6,7.6,0,0,0-1-2.37c-.55-1.1-1.08-2.13-.53-3.21a2.9,2.9,0,0,1,2.27-1.35c2.86-.46,5.54,2.43,8.38,5.5a24.22,24.22,0,0,1,2.29,3.86c2.11,4.6,1.79,6.53,2.66,9.61,1.54,5.47-.79,7.76-2.57,2.72l2.51,2.75c-.18,0-2.87-2.7-3.06-2.7C392.62,357.87,386.75,353,385.21,343.06Zm1.66-3.73a18.14,18.14,0,0,1,1.21,2.85c2.5,8.17,6.72,12.6,8,12.7a2.65,2.65,0,0,0,.49-1.48,10.33,10.33,0,0,0-2.58-7.75c-.62-.64-1.25-1.32-1.86-2-1.81-2-4-4.35-5.36-4.58A2.68,2.68,0,0,0,386.87,339.33Z" transform="translate(-162.58 -325.07)"/><path class="b" d="M383,350.83c-2.77-1.35-5.46-5.42-7.21-10.9-1.71-2.86-7.22-8-6.2-10.17.32-.69.3-.71,1.34-1.18,2.94-1.36,9.71,3.66,13.31,8.69,2.05,2.87,5.35,8.17,4.36,11.45a3.61,3.61,0,0,1-2.26,2.37h0a3.67,3.67,0,0,1-1.32.23A4.61,4.61,0,0,1,383,350.83Zm-4.55-12.29.15.32c1.77,5.65,4.19,8.52,5.72,9.27a1.26,1.26,0,0,0,1,.15h0a.61.61,0,0,0,.45-.43c.42-1.39-1.2-5-3.94-8.85-1.34-1.86-4.63-6.46-6.49-7.27A28.82,28.82,0,0,0,378.48,338.54Z" transform="translate(-162.58 -325.07)"/><path class="b" d="M367.38,341.83l-1.83-1.55c-6.27-5.26-10.06-7.87-9.53-11.2.09-.55,0-2.83,6.07-.84,3.34,1.08,8,2.94,10.41,4.91,2.62,2.18,9.58,8,5.82,12.57h0a3.43,3.43,0,0,1-2.38,1.36h-.31C373.61,347.09,371.46,345.28,367.38,341.83ZM361.09,331c.41,1.23,3.23,4.35,6.39,7l1.84,1.56c2.94,2.48,5.49,4.62,6.35,4.55.1,0,.26-.19.33-.27h0c.85-1.05.61-3.35-5.42-8.36C367.63,333,363,331,361.36,331A1.12,1.12,0,0,0,361.09,331Z" transform="translate(-162.58 -325.07)"/><path class="b" d="M376.43,363.61c-3.81-2.32-7.89-6.6-7.94-9.95a2,2,0,0,1,.79-1.71c1.13-.86,2.65-.41,6.32.69l1.16.34c6.94,2,11.6,5,12.77,8,.43,1.1,3.35,5.09,2.82,6,0,0-4.93-.65-6.3-.32a5.32,5.32,0,0,1-1.35.16C382.6,366.79,380,365.77,376.43,363.61Zm-1.68-8.1c-1.09-.32-2.2-.65-3-.85.84,1.93,3.49,4.71,6.24,6.39,3.47,2.11,5.95,3,7.35,2.67a2.29,2.29,0,0,0,1.45-1.21.64.64,0,0,0-.05-.45c-.61-1.57-3.81-4.13-10.83-6.2Z" transform="translate(-162.58 -325.07)"/><path class="b" d="M370.51,351.61l-.36-.22a11,11,0,0,1-2.46-1.61c-1.22-1.11-1.61-.88-5.14-4.09-.6-.55-2.64-2.83-1.78-4.28,1.23-2.09,7.4,1.17,11.59,1.88l.4.15c6.72,2.56,9.77,4.48,10.53,6.62a4.33,4.33,0,0,1-.76,3.82l-.14.24a2.8,2.8,0,0,1-1.78,1.34,4.12,4.12,0,0,1-.95.11C377.26,355.57,374,353.7,370.51,351.61Zm9.29,1Zm.15-.26c.41-.7.6-1.06.51-1.3-.18-.52-1.4-2-8.76-4.81l-.41-.16c-4.23-1.61-6.88-2.35-7.91-2.19.34.77,2.63,1.92,4.33,2.78,1.24.62,2.64,1.32,4,2.14l.37.22c5.29,3.22,7.15,3.71,7.76,3.52Z" transform="translate(-162.58 -325.07)"/><path class="b" d="M393.88,379.06c-2.87-1.92-3.66-2.48-5.88-3.75-.67-.38-1.51-.81-2.41-1.25-3.93-2-8.38-4.2-7-7.35a3.27,3.27,0,0,1,2-1.74c3.07-1.05,9.48.56,15.95,4h0c6,3.17,9.11,6,9.63,8.68a4,4,0,0,1-.9,3.42,4.4,4.4,0,0,1-3.49,1.8C399.5,382.87,396.83,381,393.88,379.06Zm-12.46-11.17c.44.94,3.85,2.65,5.51,3.48.94.47,1.82.91,2.55,1.33,2.33,1.33,4.32,2.68,6.08,3.87,4.92,3.34,6.31,4,7.49,2.58a1,1,0,0,0,.26-.92c-.16-.78-1.25-3-8.1-6.61h0C387.68,367.61,382.25,367.21,381.42,367.89Z" transform="translate(-162.58 -325.07)"/><path class="c" d="M402.36,383.8c5,5.08,7,8.91,5.78,9.87s-5.43-1.08-10.18-5.53c-4.33-4.06-8-7.51-6.7-8.48S397.77,379.15,402.36,383.8Z" transform="translate(-162.58 -325.07)"/><path class="b" d="M396.93,389.23c-5.35-5-7.52-7.24-7.42-9.16a2.11,2.11,0,0,1,.84-1.6,11.38,11.38,0,0,1,13.85,1.64l1.15,1c2.54,2.57,4.85,9,4.65,11.95a2.51,2.51,0,0,1-.95,1.84,2.77,2.77,0,0,1-1.72.53C401.7,398.35,398.17,390.39,396.93,389.23Zm10.45,3.17Z" transform="translate(-162.58 -325.07)"/><path class="b" d="M414.59,381c-4.39-13.93-2.1-15.14-.65-16a2.32,2.32,0,0,1,2.14-.07c3,1.16,9,7.81,10.6,13.5,1.5,5.49.62,9.6-.7,11.6a3.51,3.51,0,0,1-2.35,1.72h0c-.13,0-1.95,3.73-2.08,3.73C418.89,395.39,416.53,387.12,414.59,381Zm8.67,7.72Zm-4.57-7.77c1.74,5.5,3.8,7.54,4.49,7.75.66-.53,2.19-3.73.6-9.53-1.27-4.64-6-9.68-8.1-11.13C415.68,369.34,416.11,372.71,418.69,380.91Z" transform="translate(-162.58 -325.07)"/><path class="c" d="M404,395.7c2.31-1.17,8.86,2.57,13.83,9.41.53.73,1,1.44,1.47,2.13.09-.78.2-1.59.34-2.43,1.35-8.35,5.52-14.63,8.11-14.63s3.52,8.08,1.91,15.63c-1.75,8.27-5.15,13.63-7.74,13.63a2.34,2.34,0,0,1-.26,0c-2.6.33-7.52-2.89-12.33-8.88S401.71,396.86,404,395.7Z" transform="translate(-162.58 -325.07)"/><path class="c" d="M405.72,372.58c2.56-.41,7,1.63,12.37,14.67,3.51,8.57,2.62,14.4.06,14.81s-6.76-4.34-9.81-12.23C405.57,382.64,403.17,373,405.72,372.58Z" transform="translate(-162.58 -325.07)"/><path class="c" d="M397.61,360.38c6.24,6.55,7.25,11.05,5.36,11.64-2.28.71-6.91-1.77-11.59-7.66-6.35-8-7.57-12.23-6.33-13C387.83,349.53,392.82,355.35,397.61,360.38Z" transform="translate(-162.58 -325.07)"/><path class="c" d="M411.08,373.05c-3.33,1.05-8.6-8.49-9.81-11.23-1.81-4.1-3.94-12.14-1.39-12.56s8.32,4.45,11.21,12.4C413,367,413.55,372.27,411.08,373.05Z" transform="translate(-162.58 -325.07)"/><path class="c" d="M397.56,356.38c-3.5,1.68-8.27-5.09-10.92-13.76,0,0-2.37-5.35-.47-5,2.55.45,4.84,2.42,7.88,7S399.89,355.25,397.56,356.38Z" transform="translate(-162.58 -325.07)"/><path class="c" d="M385.82,350.08c-3.68,1.85-8.48-8.74-11.91-15.17,0,0-2.77-4-1.34-4.62,2.56-1.18,7.43,3.65,10,7.73C384.39,340.91,389.6,348.19,385.82,350.08Z" transform="translate(-162.58 -325.07)"/><path class="c" d="M376.83,345.12c-1.45.19-3.26,1.87-11.64-6.95,0,0-9.64-7.56-8.08-9.57s7.31,1.95,11.37,4.18C373.12,335.33,379.16,343.14,376.83,345.12Z" transform="translate(-162.58 -325.07)"/><path class="c" d="M376.33,354.42c9.83,2.9,14.13,8.66,12.48,10.23s-5.31,1.51-11.6-2.32c-3.53-2.15-7.18-6.1-7.22-8.69C370,352.41,371.91,353.11,376.33,354.42Z" transform="translate(-162.58 -325.07)"/><path class="c" d="M375.09,346.12c8.17,2.85,9.31,5.77,8,8.38-1.49,3-9.83-2.9-12.9-4.85-5.65-3.58-7.49-4.72-7.65-7C362.38,340.11,370.79,344.63,375.09,346.12Z" transform="translate(-162.58 -325.07)"/><path class="c" d="M395.91,370.29c5.12,2.84,9.36,7.46,8.29,9.82-1.3,2.85-8.16-1.68-15.46-6.11-3.15-1.91-9.8-4.32-8.74-6.68S388.39,366.12,395.91,370.29Z" transform="translate(-162.58 -325.07)"/><path class="c" d="M403.38,384c5.56,5.26,5,10.06,3.5,10.62-2.86,1.07-5.26-1.12-8.92-6.49-2-2.88-6.87-7.89-5.61-8.85S400.62,381.39,403.38,384Z" transform="translate(-162.58 -325.07)"/><path class="c" d="M422.42,392.17c-1.56.22-3.2-4.61-5.16-10.81-1.78-5.66-2.69-13.68-1.06-14.71,1.34-.84,6.86,6.18,8.58,12.48C426.67,386,424,392,422.42,392.17Z" transform="translate(-162.58 -325.07)"/><path class="b" d="M331.52,521.22a2.47,2.47,0,0,0,2.61,1.41c1.5,0,3.84-.52,7.64-1.73.83,3.88,5.31,7.71,6.34,8.55a2,2,0,0,0,1.26.44h.19l4.68-.44c-2.9,2.07-5.91,4.74-2.05,4.74a35.35,35.35,0,0,0,7.51-1.28,2,2,0,0,0,1.18,1.37l2.7,1.09a25.4,25.4,0,0,0,2.42.91l10.86.08c4.7,0,14.25-7.67,14.68-8.28s9.62-12.2,8.45-11.59c-4.33,2.27-4.21,1.82-6.55,2.42a12.26,12.26,0,0,1-3.68.71,127.36,127.36,0,0,0,28.91-28.4c-2.63,2-10.26,6.07-18.65,10.13,15-23.85,42.84-47.22,42.84-47.22-8,3-15.91,5.32-26.84,17.46,9.22-12.93,10.17-15.45,18.72-30a60,60,0,0,0,4.12-6.6c.41-.81-4.24,1.29-5,1.7a28.25,28.25,0,0,0-5.81,3.42c3.22-8.2,6-16.94,8.85-21.32a27.14,27.14,0,0,1,5.18-7.08c.57-.6-6.85,3.47-7.53,3.93-5.53,3.78-10.44,6.1-14,11.79a32.69,32.69,0,0,0-7.95-9c-2.54-2-7.07-4.2-6.78-3.48.6,1.47,2.73,1.54,4.24,8.16,0,.1,1,9.05,1.19,22-1.55-5.43-.74-5.35-3.82-11.09-3.59-6.68-8.22-10.88-8.16-10.06.8,9.55.77,14.5.8,15.32l-.26,31.27h0a75.34,75.34,0,0,0-5.12-8.93,30.17,30.17,0,0,0-4.4-6.81c-.68-.74.51,3.85.77,4.81,2.4,9.1-2.59,18.43-6.79,28.19l-.63-4.4a39.09,39.09,0,0,1-.16-7.61c0-.77-3.25,2.64-3.78,3.2a56.49,56.49,0,0,1-3.54,4.89c-.5-.28.63-.13,0,0C365.79,486.09,359,495.2,359,495.2l-12.15,15.32-11.15,4.71-.24.14C331.85,517.76,330.67,519.51,331.52,521.22Zm10.88-4.74,1-.49-.25.22ZM370,491.72c-1.16,2-5.1,7.91-5.59,8.9-1.46,2.46-5.17,6.12-8.78,9.9-4.45,4.34-8,3.94-12.22,5.47.19-.11,0,0,5.42-3.53l7-8.45c.05-.06,7.65-9.54,7.69-9.6a50,50,0,0,1,8.69-6.56c-.66,1.23-1.46,2.61-2.22,3.83C370,491.69,370,491.71,370,491.72ZM394.64,466c3.87,7.25.8,25.65-6.6,38.71-5.82,3.37-10.59,6.21-14.49,8.61C382.19,502,389.89,486,394.64,466Zm14.85-8.29-6.86,9.72.11-37C409.56,441.15,409.72,454.89,409.49,457.72Zm9.18-27.31.49,3c-1.89,5.71-2.63,7-2.5,17.12l-4.14,4.71v-2.75s.57-7.35.57-7.42c.72-11.09,1.06-17.86,0-23.32A52.11,52.11,0,0,1,418.67,430.41Zm16.07-13c-4.44,8.56-11.28,23.4-12,25.45l-3.51,4.95c-.24-2.54.55-9.2,4.37-17.62C424.44,428.24,430.8,420.77,434.74,417.38ZM432,441.44c-9.43,14.08-25.43,37.14-34.11,49,.87-3.87.64-4.5,1.89-10.33l4.93-9,9.83-13.3,7.31-8.18,3.54-3.43C426,445.66,428.48,444.07,432,441.44Zm-25.89,59.91A182.85,182.85,0,0,1,383,519.25a1.92,1.92,0,0,0-.81.48,72.54,72.54,0,0,1-16.56,7.41c-1.18.35-2.26.66-3.26.93,3.29-3.45,15.84-15.15,24.71-18.46C392.21,507.68,399.82,504.35,406.09,501.35Zm-39.46,30.92c6.12-2.9,13.71-5.78,16.68-7.81l3.24-.9h0c.13,0,2.87,0,5.43-.32-11.05,10.34-17.12,10.8-23.54,9.11Zm-21-12.68A48.11,48.11,0,0,0,364.24,507a38.85,38.85,0,0,0,7.49-10c1-1.66,1.58-2.85,1.77-3.26a.75.75,0,0,0,.07-.12l.23-.37c2.14-3.46,5.2-8.65,7.23-11l.51,8.08c-2,11.37-16.22,26.61-22.31,32.69a21.86,21.86,0,0,0-2.47,2.23l-6.74.64C347.67,523.75,345.43,520.89,345.63,519.59Z" transform="translate(-162.58 -325.07)"/><path class="b" d="M423.26,419.44v6.74l-2.85,2.4-1.74-1.72.49-7S420.11,420.84,423.26,419.44Z" transform="translate(-162.58 -325.07)"/><path class="d" d="M233.43,537.61s16.17-14.7,28.43-17.81a70.61,70.61,0,0,1,23-1.85l-5,25.37L254,557.72l-1.62-19Z" transform="translate(-162.58 -325.07)"/><path class="b" d="M253.14,559.35l-1.68-19.69L231,538.47l1.76-1.6c.67-.61,16.49-14.9,28.85-18A71,71,0,0,1,285,517l1.07.12L280.72,544Zm-17.2-22.6,17.36,1,1.57,18.33,24.07-13.42,4.72-23.82a71.76,71.76,0,0,0-21.56,1.92C252.6,523.18,240.49,532.89,235.94,536.75Z" transform="translate(-162.58 -325.07)"/><path class="d" d="M372.06,537.61s-16.16-14.7-28.42-17.81a70.67,70.67,0,0,0-23-1.85l5,25.37,25.83,14.4,1.62-19Z" transform="translate(-162.58 -325.07)"/><path class="b" d="M352.36,559.35,324.77,544l-5.33-26.89,1.08-.12a70.91,70.91,0,0,1,23.36,1.87c12.36,3.14,28.19,17.43,28.86,18l1.75,1.6L354,539.66Zm-25.81-16.68,24.08,13.42,1.56-18.33,17.37-1c-4.55-3.86-16.67-13.57-26.17-16a71.43,71.43,0,0,0-21.56-1.92Z" transform="translate(-162.58 -325.07)"/><polyline class="d" points="106.06 212.53 130.51 222.82 128.91 188.3 99.62 195.62 106.06 212.53 106.06 212.53"/><path class="b" d="M294.16,549.43l-26.31-11.07-7-18.36,31.57-7.89Zm-24.74-12.58,22.6,9.51-1.47-31.72-27,6.75Z" transform="translate(-162.58 -325.07)"/><polyline class="d" points="173.62 212.53 149.16 222.82 150.76 188.3 180.06 195.62 173.62 212.53 173.62 212.53"/><path class="b" d="M310.67,549.43l1.73-37.32L344,520l-7,18.36Zm3.61-34.79-1.47,31.72,22.61-9.51,5.88-15.46Z" transform="translate(-162.58 -325.07)"/><path class="d" d="M258.8,511.78l9.83,25.83s35.89-14.29,67.89,0l9.83-24.23s-11.09-9.49-44.8-9.6S258.8,511.78,258.8,511.78Z" transform="translate(-162.58 -325.07)"/><path class="b" d="M337.06,538.94l-.95-.42c-31.23-13.94-66.75-.12-67.11,0l-.94.37-10.43-27.42.51-.46c.38-.34,9.71-8.41,43.41-8.25s45,9.44,45.45,9.84l.54.47ZM260,512.13l9.21,24.2c5.88-2.1,37.89-12.41,66.76-.05l9.15-22.56c-2.64-1.8-14.82-8.84-43.59-8.94h-.7C272.76,504.78,262.34,510.55,260,512.13Z" transform="translate(-162.58 -325.07)"/><path class="e" d="M247.65,476.87c-5,0-12.43-3.77-16.59-10.91-4-6.93-3.66-15,1.05-22.7l1.37-2.24c10.36-17,20.15-33,52.81-81h0c6.52-9.58,13.23-11.48,17.73-11.47,6,.08,11.69,3.76,15.94,10.36,14.7,22.87,24.9,40.77,34.76,58.08,4.94,8.69,9.61,16.89,14.83,25.7,4.51,7.62,4.81,16.38.79,23.43a21.69,21.69,0,0,1-19.2,10.76c-1.55,0-5.21,0-10.35-.1-21.19-.25-65.29-.76-92.83.1Zm44.43-112.93h0c-32.56,47.87-42.31,63.83-52.63,80.73l-1.37,2.24c-3.35,5.49-3.69,10.86-1,15.53,2.85,4.91,8.07,7.5,10.63,7.43,27.69-.88,71.89-.36,93.14-.11,5.09.06,8.72.1,10.26.1,5.71,0,10.5-2.63,13.12-7.23,2.75-4.83,2.48-11-.74-16.4-5.24-8.86-10.14-17.47-14.88-25.79-9.82-17.24-20-35.06-34.57-57.77-2.93-4.56-6.53-7.09-10.14-7.14h-.11C299.88,355.53,295.82,358.44,292.08,363.94Z" transform="translate(-162.58 -325.07)"/><path class="a" d="M348.6,420.31c-9.84-17.27-20-35.13-34.64-57.9-2.94-4.57-6.55-7.11-10.17-7.16h-.1c-3.95,0-8,2.92-11.78,8.44-32.64,48-42.41,64-52.75,80.92l-1.37,2.24c-3.37,5.51-3.7,10.89-1,15.57,2.82,4.85,7.95,7.45,10.55,7.45h.11c11.59-.37,26.07-.49,40.55-.49,20.2,0,40.4.24,52.81.38,5.11.06,8.74.1,10.28.1,5.73,0,10.53-2.64,13.16-7.25,2.76-4.84,2.48-11-.74-16.43C358.27,437.29,353.35,428.66,348.6,420.31ZM359,459.63c-1.55,2.72-4.36,4.22-7.93,4.22-1.46,0-4.95,0-9.78-.1h-.54c-12.19-.15-32.59-.39-52.77-.39-16.62,0-30.27.17-40.57.49a10,10,0,0,1-5.44-4.46c-.59-1-2.36-4.05.91-9.4l1.37-2.25c10.3-16.86,20-32.79,52.6-80.67,2.91-4.28,5.42-5.8,6.8-5.8,1.12,0,3.13,1.17,5.21,4.4,14.55,22.64,24.68,40.42,34.47,57.62,4.76,8.35,9.69,17,15,25.95C360.46,452.8,360.72,456.69,359,459.63Z" transform="translate(-162.58 -325.07)"/><path class="f" d="M279,524.08c3.49-3.37,7.23-6.52,7.23-9.1,0-1.11-.55-1.76-1.72-1.59s-1.84,1.12-1.84,2.57c-1.24.2-2.48.42-3.72.65a6.3,6.3,0,0,1,5.72-6.26c3.75-.53,5.44,1.38,5.44,4,0,3.35-3.25,6.37-5.87,8.64q3-.45,6.12-.75v2.91c-3.8.38-7.6.92-11.36,1.64Z" transform="translate(-162.58 -325.07)"/><path class="f" d="M302.06,522q-3.82,0-7.66.27v-2.9q3.6-5,7.21-9.75c1.45,0,2.9,0,4.36,0v9.28l1.87.06v3.11l-1.87-.06v2.73c-1.3,0-2.6,0-3.91,0Zm.28-3.11v-5.33q-1.92,2.67-3.83,5.4C299.78,518.92,301.06,518.9,302.34,518.89Z" transform="translate(-162.58 -325.07)"/><path class="f" d="M322.33,520.22q-3-.47-6-.8v6.06c-1.29-.14-2.59-.26-3.88-.36V510.38c1.29.1,2.59.22,3.88.36v5.78q3,.33,6,.81v-5.78c1.29.21,2.58.43,3.86.68V527c-1.28-.24-2.57-.46-3.86-.67Z" transform="translate(-162.58 -325.07)"/><path class="e" d="M297.28,336.91c4.25-2.06,8.61-1.72,12.65-1.71,1.9,0,5.64.46,6.09-1.11s-1.52-2.32-3.5-5-1.75.61-9.23,1.15c0,0-12.56-.07-15.84-.23a42,42,0,0,1,2.67,5.7C290.73,337.71,292.66,339.15,297.28,336.91Z" transform="translate(-162.58 -325.07)"/><path class="f" d="M293.26,341a6.55,6.55,0,0,1-2.64-.52,6.14,6.14,0,0,1-3.37-3.92,37.92,37.92,0,0,0-2.42-5.13A3,3,0,0,1,287.6,327c3,.15,14.3.22,15.59.22a12.61,12.61,0,0,0,5.32-1.4c1.27-.62,3.9-1.91,6.42,1.47a16.21,16.21,0,0,0,1.78,2c1.19,1.18,3,2.95,2.19,5.65-1,3.54-5.41,3.38-8,3.29l-1,0h-1.46c-3.48-.05-6.75-.09-9.87,1.42h0A12.5,12.5,0,0,1,293.26,341Zm4-4.13h0Zm-4.18-1.85a5.94,5.94,0,0,0,2.87-.85,18.18,18.18,0,0,1,2.53-1l-6.15-.07a17.74,17.74,0,0,1,.64,1.7.73.73,0,0,0,.09.22Zm15.8-2.87h1l1.17,0h.11c-.21-.23-.42-.47-.63-.73A16.31,16.31,0,0,1,308.9,332.19Z" transform="translate(-162.58 -325.07)"/><path class="e" d="M305.05,343.63s-3.27.26-5,1.67a28,28,0,0,1-3.35,2.3s-4.65,1.39-6.55,1.31,2.74,5.12,5,5.38,6.7-3.88,11.58-3.94,5.1-1.86,5-2.75S305.05,343.63,305.05,343.63Z" transform="translate(-162.58 -325.07)"/><path class="f" d="M290.81,363.05c-.42-3.14-4.36-11-4.13-14.06a3.35,3.35,0,0,1,3.56-3.08,25.9,25.9,0,0,0,5.23-1.09,26.09,26.09,0,0,0,2.68-1.86c2.35-1.89,6-2.27,6.67-2.32a2.94,2.94,0,0,1,1.49.27c7.66,3.55,8.3,4.8,8.44,6.43.15,1.82.37,4.54-.28,5.26-1.32,1.46-3.94,2.26-7.13,2.65C294.88,356.77,291.12,365.31,290.81,363.05Zm4.37-11.94a1.64,1.64,0,0,0,.28.16,12.15,12.15,0,0,0,1.35-.59C296.36,350.81,295.8,351,295.18,351.11Zm9.38-4.39a6.72,6.72,0,0,0-2.66.92c-.77.61-1.51,1.14-2.13,1.56a17.6,17.6,0,0,1,6.14-1.82Zm-7.89.88h0Z" transform="translate(-162.58 -325.07)"/><path class="e" d="M327.76,368.13c-2.36-2.46-7.16-4.21-8.84-5.51s-6.1-.91-11.28.38-25,3.93-29.56,2.62a12.17,12.17,0,0,0,9.91,6.22c6.93.31,38.09-1.29,38.09-1.29S330.12,370.59,327.76,368.13Z" transform="translate(-162.58 -325.07)"/><path class="f" d="M290.33,374.88c-1,0-3.41.64-4.06.61-8.59-.39-9.6-7.41-9.76-7.72,0,0-1.5-3.15-.74-4.07s4.7.15,5.88.09c11.41-.54,20-1.62,25.26-3.7,11.52-4.56,13.3-1.15,14.18-.48.4.32,1.08,1.48,2.07,2a26.11,26.11,0,0,1,6.76,4.45h0c2,2.11,1.67,3.95,1.28,4.86a6,6,0,0,1-4.92,3.38C324.36,374.39,303.91,373.59,290.33,374.88Zm-3-6.1c.25,0,.51.05.77.06,5.26.24,25.27-.67,33.86-1.09l-1.58-.82a23.3,23.3,0,0,1-3.31-1.93c-.42-.21-2.92-.54-8.72.91A157.37,157.37,0,0,1,287.35,368.78Z" transform="translate(-162.58 -325.07)"/><path class="e" d="M301.77,380.3s-1.93-3.08-3.73-1.22c0,0-5.25,8.28-10.59,11.1s7.7.18,12.57-2.11a12.57,12.57,0,0,0,4-2.88l6.95.1c-3.12,5.92-8.72,10.17-11.65,12.11l-4.23.75,0-1.07-1.53-.78h-5.33c-.91,2.14,1.63,6.25,1.63,6.25s-.11,11.35-.87,17.07a32.5,32.5,0,0,1-3.5,10.51s-3.2,1.52,2.74-.91,6.18-9.45,6.18-9.45l0-.94L312.83,417l.15,11.72-4.73.46c4.73.83,5.87,6.24,7.84,6.09s2.68-4.71,2.68-4.71-.31-23.4,0-25.76,3.5-5.64,3.5-5.64L314,394.78l-7.19,1.28c5.12-3.12,13.59-10.77,13.59-10.77s-4.95-4.45-5.33-4.53-4.88.68-4.88.68l1.54,1.64H305.5a5.19,5.19,0,0,0,.31-.77Zm-.43,19.91c.13,2.12.31,4.84.39,6.49l-6.9.93.2-6.53Zm11.48,12.67c-1.27,0-3.53.24-6.09.51v-5.18l6.09-.92ZM294.76,410l6.91-1c-.15,1.15-.41,3.3-.62,5-2.53.3-4.88.59-6.43.79Zm18.06-4.79-6.09.81v-6.59l6.09-.86Z" transform="translate(-162.58 -325.07)"/><path class="f" d="M316,438.32c-2.26,0-3.63-1.83-4.65-3.18-1.22-1.62-2.13-2.71-3.61-3a3,3,0,0,1,.23-5.94l2-.19-.07-5.7-12.61,1.24c-.49,2.76-2.17,8.09-7.83,10.41-1.45.6-2.37,1-2.94,1.17-2.94,1.11-4.11-.37-4.55-1.35s-.57-2.57,1.36-3.85a29.59,29.59,0,0,0,2.78-8.74c.61-4.6.79-13.21.83-15.88-1-1.81-2.58-5.42-1.38-8.22a3.15,3.15,0,0,1,.5-.78,3.11,3.11,0,0,1-2.51-1.79c-.54-1.09-.94-3.19,2.53-5,3.78-2,8.11-7.94,9.46-10.06a2.89,2.89,0,0,1,.38-.47,4.63,4.63,0,0,1,3.87-1.49,6.18,6.18,0,0,1,4,2.43l3.39,1.68a3.12,3.12,0,0,1,.49.31,3,3,0,0,1,2.09-1.44c5-.86,5.43-.78,6-.67.86.17,5.84,8.06,6.75,9.7-.19.17-2.8,2.53-6,5.15l7.24,3.88a3,3,0,0,1,1.55,2.19,3,3,0,0,1-.82,2.55,11.65,11.65,0,0,0-2.68,3.93c-.18,1.48-.12,14.16,0,25.34a2.74,2.74,0,0,1,0,.5c-.25,1.62-1.38,6.93-5.41,7.24Zm-.61-7.77.27.34c0-.18.08-.36.11-.53v-.47A3.07,3.07,0,0,1,315.38,430.55ZM315,415a3.06,3.06,0,0,1,.65,1c0-.7,0-1.38,0-2.06A2.89,2.89,0,0,1,315,415Zm-11-.35c0,.1-.05.19-.07.29l.2,0C304.07,414.79,304,414.7,304,414.61Zm8.83-1.73h0Zm2.82-6.63c0,.05,0,.1.05.15,0-.11,0-.22,0-.32Zm.18-7.11v5.09a11.13,11.13,0,0,1,1.83-4.11ZM298,403.72v.47l.64-.09,0-.47Zm11.78-1.67v.55h.09V402Zm-18.1-2.75a11.06,11.06,0,0,0,.49,1.05,3,3,0,0,1,.34-.8l-.12-.25Zm11.87-1.17a3.94,3.94,0,0,1,.36.45,3,3,0,0,1,.45-.91l-.07-.12Zm-12.41-.79Zm2.53-4h0a3.07,3.07,0,0,1,1.37.33l1.52.78a3,3,0,0,1,.54.35l1.15-.2a36.85,36.85,0,0,0,7.18-6.35h-.12a16.21,16.21,0,0,1-4,2.58A45.5,45.5,0,0,1,293.62,393.3ZM314,385.09a3.09,3.09,0,0,1-.34,1.6c-.17.32-.34.63-.52.94,1-.84,2-1.65,2.78-2.35l-1.33-1.15-.06.14A2.82,2.82,0,0,1,314,385.09Zm-14.48-2.82c-.73,1.05-1.8,2.49-3.08,4a23.15,23.15,0,0,0,2.32-.9,9.76,9.76,0,0,0,2.74-1.85l-1.05-.52A3,3,0,0,1,299.51,382.27Z" transform="translate(-162.58 -325.07)"/><path class="e" d="M319.07,445.81a3.52,3.52,0,0,0,3.2-1.83l-4.27-3.2-5.48,2.28-5.36.47,2.62-4.43-.84-3.2-9.07-1.46c1.29.65,2.14,6.46,2.51,9.51l-10.65.94-3.44-.76c2.9,22.71-14.86,40.08-14.86,40.08C288.16,482,294.51,453.1,295.7,447,303,446.07,316.92,445.94,319.07,445.81Z" transform="translate(-162.58 -325.07)"/><path class="f" d="M273.43,487.21a3,3,0,0,1-2.09-5.15c.16-.16,16.64-16.65,14-37.55a3,3,0,0,1,3.63-3.31l3,.66,7.05-.62a21.83,21.83,0,0,0-1.08-4.55,3,3,0,0,1,2.46-5.22l9.07,1.47a3,3,0,0,1,2.42,2.2l.84,3.2a3,3,0,0,1,0,1.4l4.14-1.73a3,3,0,0,1,2.95.37l4.27,3.2a3,3,0,0,1,1,3.53,6.5,6.5,0,0,1-5.8,3.69c-.54,0-1.82.07-3.54.11-4.39.12-12.09.32-17.52.81-2.26,10.48-9.16,35.14-24.3,37.45A2.45,2.45,0,0,1,273.43,487.21Zm18.16-39.33c.05,1.37,0,2.72-.06,4,.34-1.37.65-2.74.93-4.09l-.47.05Zm12.94-9.65c.17.87.34,1.86.51,3l1.52-2.57,0-.1Zm-6-1.12h0Z" transform="translate(-162.58 -325.07)"/><path class="e" d="M316.09,469.43l-2.2,2.13-4.07.67a95.82,95.82,0,0,1,1.12-12.93,42.79,42.79,0,0,0,4.32-.29c5.79-.67,7-.07,7-.07l-1.83-4.45-4.35,1.68-4.7.45c.31-2.92-.39-3.5-.39-3.5l-7.16-2.74c.68,7.7,0,19.69-.09,22.85l-3.85.63L294,471.07c-1.06,2.07,3.41,10.7,3.41,10.7s1.58,4.45,3.29,5.94a3.2,3.2,0,0,0,3.12.94l-.19-.91c4.74.05,13.64.11,14.05,0,2.74-.91,2.69-2.81,2.69-2.81l-.83,0,2.25-9,2.14-1.58-.61-3.15Zm-1.21,15.23-12-.38-1.71-7.91L315.57,474l-.6,10.66Z" transform="translate(-162.58 -325.07)"/><path class="f" d="M303.18,491.75a6.77,6.77,0,0,1-4.43-1.77c-2-1.77-3.56-5.59-4.07-7-5.08-9.85-3.77-12.42-3.33-13.27a3,3,0,0,1,3.95-1.34l5,2.39.52-.08a178.12,178.12,0,0,0,0-20,3,3,0,0,1,4.07-3.06l7.15,2.74a3,3,0,0,1,.83.49,4.2,4.2,0,0,1,1.38,2.52l1.11-.11,4-1.53a3,3,0,0,1,3.85,1.66l1.83,4.45a3,3,0,0,1-3.76,4,22.12,22.12,0,0,0-5.69.21c-.72.08-1.41.15-2.08.2-.24,1.92-.41,4.11-.52,6.05l1-1a3,3,0,0,1,2.77-.77l7.24,1.68a3,3,0,0,1,2.27,2.35l.61,3.15a3,3,0,0,1-1.16,3l-1.27.93L323,483.44a3,3,0,0,1,.38,1.37c0,1.53-.91,4.47-4.74,5.75-.59.19-.9.3-12.68.2a2.81,2.81,0,0,1-1,.68A4.9,4.9,0,0,1,303.18,491.75Zm11.7-7.09v.13h0Zm-9.55-3.31,6.81.22.22-4-7.58,1.24ZM318.41,473a3.11,3.11,0,0,1,.15,1.14l-.16,3,.5-2a3,3,0,0,1,1.13-1.68Zm-11.32-18.2c.19,6.64-.15,14.28-.3,17.57h0a2.44,2.44,0,0,1,0-.27A99.34,99.34,0,0,1,308,458.72a2.47,2.47,0,0,0,.42-2.42c0-.38,0-.69.06-.93Zm-10.23,17.08Zm24.48-10.13Zm-.38-.15Zm0,0h0Zm0,0Zm-12.54-7.07Z" transform="translate(-162.58 -325.07)"/><path class="e" d="M297.28,336.91c4.25-2.06,8.61-1.72,12.65-1.71,1.9,0,5.64.46,6.09-1.11s-1.52-2.32-3.5-5-1.75.61-9.23,1.15c0,0-12.56-.07-15.84-.23a42,42,0,0,1,2.67,5.7C290.73,337.71,292.66,339.15,297.28,336.91Z" transform="translate(-162.58 -325.07)"/><path class="e" d="M305.05,343.63s-3.27.26-5,1.67a28,28,0,0,1-3.35,2.3s-4.65,1.39-6.55,1.31,2.74,5.12,5,5.38,6.7-3.88,11.58-3.94,5.1-1.86,5-2.75S305.05,343.63,305.05,343.63Z" transform="translate(-162.58 -325.07)"/><path class="e" d="M327.76,368.13c-2.36-2.46-7.16-4.21-8.84-5.51s-6.1-.91-11.28.38-25,3.93-29.56,2.62a12.17,12.17,0,0,0,9.91,6.22c6.93.31,38.09-1.29,38.09-1.29S330.12,370.59,327.76,368.13Z" transform="translate(-162.58 -325.07)"/><path class="e" d="M301.77,380.3s-1.93-3.08-3.73-1.22c0,0-8.53,9.15-13.86,12s11-.69,15.84-3a12.57,12.57,0,0,0,4-2.88l6.95.1c-3.12,5.92-8.72,10.17-11.65,12.11l-4.23.75,0-1.07-1.53-.78h-5.33c-.91,2.14,1.63,6.25,1.63,6.25s-.11,11.35-.87,17.07a32.5,32.5,0,0,1-3.5,10.51s-3.2,1.52,2.74-.91,6.18-9.45,6.18-9.45l0-.94L312.83,417l.15,11.72-4.73.46c4.73.83,5.87,6.24,7.84,6.09s2.68-4.71,2.68-4.71-.31-23.4,0-25.76,3.5-5.64,3.5-5.64L314,394.78l-7.19,1.28c5.12-3.12,13.59-10.77,13.59-10.77s-4.95-4.45-5.33-4.53-4.88.68-4.88.68l1.54,1.64H305.5a5.19,5.19,0,0,0,.31-.77Zm-.43,19.91c.13,2.12.31,4.84.39,6.49l-6.9.93.2-6.53Zm11.48,12.67c-1.27,0-3.53.24-6.09.51v-5.18l6.09-.92ZM294.76,410l6.91-1c-.15,1.15-.41,3.3-.62,5-2.53.3-4.88.59-6.43.79Zm18.06-4.79-6.09.81v-6.59l6.09-.86Z" transform="translate(-162.58 -325.07)"/><path class="e" d="M319.07,445.81a3.52,3.52,0,0,0,3.2-1.83l-4.27-3.2-5.48,2.28-5.36.47,2.62-4.43-.84-3.2-9.07-1.46c1.29.65,2.14,6.46,2.51,9.51l-10.65.94-3.44-.76c2.9,22.71-14.86,40.08-14.86,40.08C288.16,482,294.51,453.1,295.7,447,303,446.07,316.92,445.94,319.07,445.81Z" transform="translate(-162.58 -325.07)"/><path class="e" d="M316.09,469.43l-2.2,2.13-4.07.67a95.82,95.82,0,0,1,1.12-12.93,42.79,42.79,0,0,0,4.32-.29c5.79-.67,7-.07,7-.07l-1.83-4.45-4.35,1.68-4.7.45c.31-2.92-.39-3.5-.39-3.5l-7.16-2.74c.68,7.7,0,19.69-.09,22.85l-3.85.63L294,471.07c-1.06,2.07,3.41,10.7,3.41,10.7s1.58,4.45,3.29,5.94a3.2,3.2,0,0,0,3.12.94l-.19-.91c4.74.05,13.64.11,14.05,0,2.74-.91,2.69-2.81,2.69-2.81l-.83,0,2.25-9,2.14-1.58-.61-3.15Zm-1.21,15.23-12-.38-1.71-7.91L315.57,474l-.6,10.66Z" transform="translate(-162.58 -325.07)"/></svg>